<?xml version="1.0" standalone="no"?>
 <!DOCTYPE svg PUBLIC "-//W3C//DTD SVG 1.1//EN" 
 "http://www.w3.org/Graphics/SVG/1.1/DTD/svg11.dtd"> 
<svg xmlns="http://www.w3.org/2000/svg" version="1.1" 
    width="29.7002cm" height="21.0007cm" viewBox="0 0 116930 82680 ">
<title>SVG Picture created as amplifeuer-schematic.svg date 2019/08/09 15:01:14 </title>
  <desc>Picture generated by Eeschema-SVG </desc>
<g style="fill:#000000; fill-opacity:1;stroke:#000000; stroke-opacity:1;
stroke-linecap:round; stroke-linejoin:round; "
 transform="translate(0 0) scale(1 1)">
</g>
<g style="fill:#000000; fill-opacity:0.0; 
stroke:#000000; stroke-width:-10; stroke-opacity:1; 
stroke-linecap:round; stroke-linejoin:round;">
</g>
<g style="fill:#840000; fill-opacity:0.0; 
stroke:#840000; stroke-width:-10; stroke-opacity:1; 
stroke-linecap:round; stroke-linejoin:round;">
</g>
<g style="fill:#840000; fill-opacity:0.0; 
stroke:#840000; stroke-width:100; stroke-opacity:1; 
stroke-linecap:round; stroke-linejoin:round;">
</g>
<g style="fill:#840000; fill-opacity:0.0; 
stroke:#840000; stroke-width:60; stroke-opacity:1; 
stroke-linecap:round; stroke-linejoin:round;">
<rect x="69690" y="65360" width="42520" height="12600" rx="0" />
</g>
<g style="fill:#840000; fill-opacity:0.0; 
stroke:#840000; stroke-width:100; stroke-opacity:1; 
stroke-linecap:round; stroke-linejoin:round;">
</g>
<g style="fill:#840000; fill-opacity:0.0; 
stroke:#840000; stroke-width:60; stroke-opacity:1; 
stroke-linecap:round; stroke-linejoin:round;">
<rect x="3940" y="3940" width="109050" height="74800" rx="0" />
</g>
<g style="fill:#840000; fill-opacity:0.0; 
stroke:#840000; stroke-width:100; stroke-opacity:1; 
stroke-linecap:round; stroke-linejoin:round;">
</g>
<g style="fill:#840000; fill-opacity:0.0; 
stroke:#840000; stroke-width:60; stroke-opacity:1; 
stroke-linecap:round; stroke-linejoin:round;">
<rect x="4720" y="4720" width="107490" height="73240" rx="0" />
</g>
<g style="fill:#840000; fill-opacity:0.0; 
stroke:#840000; stroke-width:100; stroke-opacity:1; 
stroke-linecap:round; stroke-linejoin:round;">
</g>
<g style="fill:#840000; fill-opacity:0.0; 
stroke:#840000; stroke-width:60; stroke-opacity:1; 
stroke-linecap:round; stroke-linejoin:round;">
<path d="M23620 4720
L23620 3940
" />
</g>
<g style="fill:#840000; fill-opacity:0.0; 
stroke:#840000; stroke-width:100; stroke-opacity:1; 
stroke-linecap:round; stroke-linejoin:round;">
</g>
<g style="fill:#840000; fill-opacity:0.0; 
stroke:#840000; stroke-width:60; stroke-opacity:1; 
stroke-linecap:round; stroke-linejoin:round;">
<path d="M43310 4720
L43310 3940
" />
</g>
<g style="fill:#840000; fill-opacity:0.0; 
stroke:#840000; stroke-width:100; stroke-opacity:1; 
stroke-linecap:round; stroke-linejoin:round;">
</g>
<g style="fill:#840000; fill-opacity:0.0; 
stroke:#840000; stroke-width:60; stroke-opacity:1; 
stroke-linecap:round; stroke-linejoin:round;">
<path d="M62990 4720
L62990 3940
" />
</g>
<g style="fill:#840000; fill-opacity:0.0; 
stroke:#840000; stroke-width:100; stroke-opacity:1; 
stroke-linecap:round; stroke-linejoin:round;">
</g>
<g style="fill:#840000; fill-opacity:0.0; 
stroke:#840000; stroke-width:60; stroke-opacity:1; 
stroke-linecap:round; stroke-linejoin:round;">
<path d="M82680 4720
L82680 3940
" />
</g>
<g style="fill:#840000; fill-opacity:0.0; 
stroke:#840000; stroke-width:100; stroke-opacity:1; 
stroke-linecap:round; stroke-linejoin:round;">
</g>
<g style="fill:#840000; fill-opacity:0.0; 
stroke:#840000; stroke-width:60; stroke-opacity:1; 
stroke-linecap:round; stroke-linejoin:round;">
<path d="M102360 4720
L102360 3940
" />
</g>
<g style="fill:#840000; fill-opacity:0.0; 
stroke:#840000; stroke-width:100; stroke-opacity:1; 
stroke-linecap:round; stroke-linejoin:round;">
</g>
<g style="fill:#840000; fill-opacity:0.0; 
stroke:#840000; stroke-width:60; stroke-opacity:1; 
stroke-linecap:round; stroke-linejoin:round;">
<path d="M14190 4560
L13900 4560
" />
<path d="M14050 4560
L14050 4050
L14000 4120
L13950 4170
L13900 4190
" />
</g>
<g style="fill:#840000; fill-opacity:0.0; 
stroke:#840000; stroke-width:100; stroke-opacity:1; 
stroke-linecap:round; stroke-linejoin:round;">
</g>
<g style="fill:#840000; fill-opacity:0.0; 
stroke:#840000; stroke-width:60; stroke-opacity:1; 
stroke-linecap:round; stroke-linejoin:round;">
<path d="M33580 4090
L33610 4070
L33660 4050
L33780 4050
L33830 4070
L33850 4090
L33870 4140
L33870 4190
L33850 4260
L33560 4560
L33870 4560
" />
</g>
<g style="fill:#840000; fill-opacity:0.0; 
stroke:#840000; stroke-width:100; stroke-opacity:1; 
stroke-linecap:round; stroke-linejoin:round;">
</g>
<g style="fill:#840000; fill-opacity:0.0; 
stroke:#840000; stroke-width:60; stroke-opacity:1; 
stroke-linecap:round; stroke-linejoin:round;">
<path d="M53250 4050
L53560 4050
L53390 4240
L53470 4240
L53520 4260
L53540 4290
L53560 4340
L53560 4460
L53540 4510
L53520 4530
L53470 4560
L53320 4560
L53270 4530
L53250 4510
" />
</g>
<g style="fill:#840000; fill-opacity:0.0; 
stroke:#840000; stroke-width:100; stroke-opacity:1; 
stroke-linecap:round; stroke-linejoin:round;">
</g>
<g style="fill:#840000; fill-opacity:0.0; 
stroke:#840000; stroke-width:60; stroke-opacity:1; 
stroke-linecap:round; stroke-linejoin:round;">
<path d="M73200 4220
L73200 4560
" />
<path d="M73070 4020
L72950 4390
L73270 4390
" />
</g>
<g style="fill:#840000; fill-opacity:0.0; 
stroke:#840000; stroke-width:100; stroke-opacity:1; 
stroke-linecap:round; stroke-linejoin:round;">
</g>
<g style="fill:#840000; fill-opacity:0.0; 
stroke:#840000; stroke-width:60; stroke-opacity:1; 
stroke-linecap:round; stroke-linejoin:round;">
<path d="M92910 4050
L92670 4050
L92640 4290
L92670 4260
L92720 4240
L92840 4240
L92890 4260
L92910 4290
L92930 4340
L92930 4460
L92910 4510
L92890 4530
L92840 4560
L92720 4560
L92670 4530
L92640 4510
" />
</g>
<g style="fill:#840000; fill-opacity:0.0; 
stroke:#840000; stroke-width:100; stroke-opacity:1; 
stroke-linecap:round; stroke-linejoin:round;">
</g>
<g style="fill:#840000; fill-opacity:0.0; 
stroke:#840000; stroke-width:60; stroke-opacity:1; 
stroke-linecap:round; stroke-linejoin:round;">
<path d="M112570 4050
L112470 4050
L112420 4070
L112400 4090
L112350 4170
L112320 4260
L112320 4460
L112350 4510
L112370 4530
L112420 4560
L112520 4560
L112570 4530
L112590 4510
L112610 4460
L112610 4340
L112590 4290
L112570 4260
L112520 4240
L112420 4240
L112370 4260
L112350 4290
L112320 4340
" />
</g>
<g style="fill:#840000; fill-opacity:0.0; 
stroke:#840000; stroke-width:100; stroke-opacity:1; 
stroke-linecap:round; stroke-linejoin:round;">
</g>
<g style="fill:#840000; fill-opacity:0.0; 
stroke:#840000; stroke-width:60; stroke-opacity:1; 
stroke-linecap:round; stroke-linejoin:round;">
<path d="M23620 77960
L23620 78740
" />
</g>
<g style="fill:#840000; fill-opacity:0.0; 
stroke:#840000; stroke-width:100; stroke-opacity:1; 
stroke-linecap:round; stroke-linejoin:round;">
</g>
<g style="fill:#840000; fill-opacity:0.0; 
stroke:#840000; stroke-width:60; stroke-opacity:1; 
stroke-linecap:round; stroke-linejoin:round;">
<path d="M43310 77960
L43310 78740
" />
</g>
<g style="fill:#840000; fill-opacity:0.0; 
stroke:#840000; stroke-width:100; stroke-opacity:1; 
stroke-linecap:round; stroke-linejoin:round;">
</g>
<g style="fill:#840000; fill-opacity:0.0; 
stroke:#840000; stroke-width:60; stroke-opacity:1; 
stroke-linecap:round; stroke-linejoin:round;">
<path d="M62990 77960
L62990 78740
" />
</g>
<g style="fill:#840000; fill-opacity:0.0; 
stroke:#840000; stroke-width:100; stroke-opacity:1; 
stroke-linecap:round; stroke-linejoin:round;">
</g>
<g style="fill:#840000; fill-opacity:0.0; 
stroke:#840000; stroke-width:60; stroke-opacity:1; 
stroke-linecap:round; stroke-linejoin:round;">
<path d="M82680 77960
L82680 78740
" />
</g>
<g style="fill:#840000; fill-opacity:0.0; 
stroke:#840000; stroke-width:100; stroke-opacity:1; 
stroke-linecap:round; stroke-linejoin:round;">
</g>
<g style="fill:#840000; fill-opacity:0.0; 
stroke:#840000; stroke-width:60; stroke-opacity:1; 
stroke-linecap:round; stroke-linejoin:round;">
<path d="M102360 77960
L102360 78740
" />
</g>
<g style="fill:#840000; fill-opacity:0.0; 
stroke:#840000; stroke-width:100; stroke-opacity:1; 
stroke-linecap:round; stroke-linejoin:round;">
</g>
<g style="fill:#840000; fill-opacity:0.0; 
stroke:#840000; stroke-width:60; stroke-opacity:1; 
stroke-linecap:round; stroke-linejoin:round;">
<path d="M14190 78580
L13900 78580
" />
<path d="M14050 78580
L14050 78070
L14000 78140
L13950 78190
L13900 78210
" />
</g>
<g style="fill:#840000; fill-opacity:0.0; 
stroke:#840000; stroke-width:100; stroke-opacity:1; 
stroke-linecap:round; stroke-linejoin:round;">
</g>
<g style="fill:#840000; fill-opacity:0.0; 
stroke:#840000; stroke-width:60; stroke-opacity:1; 
stroke-linecap:round; stroke-linejoin:round;">
<path d="M33580 78110
L33610 78090
L33660 78070
L33780 78070
L33830 78090
L33850 78110
L33870 78160
L33870 78210
L33850 78280
L33560 78580
L33870 78580
" />
</g>
<g style="fill:#840000; fill-opacity:0.0; 
stroke:#840000; stroke-width:100; stroke-opacity:1; 
stroke-linecap:round; stroke-linejoin:round;">
</g>
<g style="fill:#840000; fill-opacity:0.0; 
stroke:#840000; stroke-width:60; stroke-opacity:1; 
stroke-linecap:round; stroke-linejoin:round;">
<path d="M53250 78070
L53560 78070
L53390 78260
L53470 78260
L53520 78280
L53540 78310
L53560 78360
L53560 78480
L53540 78530
L53520 78550
L53470 78580
L53320 78580
L53270 78550
L53250 78530
" />
</g>
<g style="fill:#840000; fill-opacity:0.0; 
stroke:#840000; stroke-width:100; stroke-opacity:1; 
stroke-linecap:round; stroke-linejoin:round;">
</g>
<g style="fill:#840000; fill-opacity:0.0; 
stroke:#840000; stroke-width:60; stroke-opacity:1; 
stroke-linecap:round; stroke-linejoin:round;">
<path d="M73200 78240
L73200 78580
" />
<path d="M73070 78040
L72950 78410
L73270 78410
" />
</g>
<g style="fill:#840000; fill-opacity:0.0; 
stroke:#840000; stroke-width:100; stroke-opacity:1; 
stroke-linecap:round; stroke-linejoin:round;">
</g>
<g style="fill:#840000; fill-opacity:0.0; 
stroke:#840000; stroke-width:60; stroke-opacity:1; 
stroke-linecap:round; stroke-linejoin:round;">
<path d="M92910 78070
L92670 78070
L92640 78310
L92670 78280
L92720 78260
L92840 78260
L92890 78280
L92910 78310
L92930 78360
L92930 78480
L92910 78530
L92890 78550
L92840 78580
L92720 78580
L92670 78550
L92640 78530
" />
</g>
<g style="fill:#840000; fill-opacity:0.0; 
stroke:#840000; stroke-width:100; stroke-opacity:1; 
stroke-linecap:round; stroke-linejoin:round;">
</g>
<g style="fill:#840000; fill-opacity:0.0; 
stroke:#840000; stroke-width:60; stroke-opacity:1; 
stroke-linecap:round; stroke-linejoin:round;">
<path d="M112570 78070
L112470 78070
L112420 78090
L112400 78110
L112350 78190
L112320 78280
L112320 78480
L112350 78530
L112370 78550
L112420 78580
L112520 78580
L112570 78550
L112590 78530
L112610 78480
L112610 78360
L112590 78310
L112570 78280
L112520 78260
L112420 78260
L112370 78280
L112350 78310
L112320 78360
" />
</g>
<g style="fill:#840000; fill-opacity:0.0; 
stroke:#840000; stroke-width:100; stroke-opacity:1; 
stroke-linecap:round; stroke-linejoin:round;">
</g>
<g style="fill:#840000; fill-opacity:0.0; 
stroke:#840000; stroke-width:60; stroke-opacity:1; 
stroke-linecap:round; stroke-linejoin:round;">
<path d="M3940 23620
L4720 23620
" />
</g>
<g style="fill:#840000; fill-opacity:0.0; 
stroke:#840000; stroke-width:100; stroke-opacity:1; 
stroke-linecap:round; stroke-linejoin:round;">
</g>
<g style="fill:#840000; fill-opacity:0.0; 
stroke:#840000; stroke-width:60; stroke-opacity:1; 
stroke-linecap:round; stroke-linejoin:round;">
<path d="M3940 43310
L4720 43310
" />
</g>
<g style="fill:#840000; fill-opacity:0.0; 
stroke:#840000; stroke-width:100; stroke-opacity:1; 
stroke-linecap:round; stroke-linejoin:round;">
</g>
<g style="fill:#840000; fill-opacity:0.0; 
stroke:#840000; stroke-width:60; stroke-opacity:1; 
stroke-linecap:round; stroke-linejoin:round;">
<path d="M3940 62990
L4720 62990
" />
</g>
<g style="fill:#840000; fill-opacity:0.0; 
stroke:#840000; stroke-width:100; stroke-opacity:1; 
stroke-linecap:round; stroke-linejoin:round;">
</g>
<g style="fill:#840000; fill-opacity:0.0; 
stroke:#840000; stroke-width:60; stroke-opacity:1; 
stroke-linecap:round; stroke-linejoin:round;">
<path d="M4200 13860
L4450 13860
" />
<path d="M4160 14010
L4330 13500
L4500 14010
" />
</g>
<g style="fill:#840000; fill-opacity:0.0; 
stroke:#840000; stroke-width:100; stroke-opacity:1; 
stroke-linecap:round; stroke-linejoin:round;">
</g>
<g style="fill:#840000; fill-opacity:0.0; 
stroke:#840000; stroke-width:60; stroke-opacity:1; 
stroke-linecap:round; stroke-linejoin:round;">
<path d="M4360 33420
L4430 33440
L4460 33470
L4480 33520
L4480 33590
L4460 33640
L4430 33660
L4390 33690
L4190 33690
L4190 33180
L4360 33180
L4410 33200
L4430 33220
L4460 33270
L4460 33320
L4430 33370
L4410 33390
L4360 33420
L4190 33420
" />
</g>
<g style="fill:#840000; fill-opacity:0.0; 
stroke:#840000; stroke-width:100; stroke-opacity:1; 
stroke-linecap:round; stroke-linejoin:round;">
</g>
<g style="fill:#840000; fill-opacity:0.0; 
stroke:#840000; stroke-width:60; stroke-opacity:1; 
stroke-linecap:round; stroke-linejoin:round;">
<path d="M4480 53330
L4460 53350
L4390 53380
L4340 53380
L4260 53350
L4220 53300
L4190 53250
L4170 53160
L4170 53080
L4190 52990
L4220 52940
L4260 52890
L4340 52870
L4390 52870
L4460 52890
L4480 52910
" />
</g>
<g style="fill:#840000; fill-opacity:0.0; 
stroke:#840000; stroke-width:100; stroke-opacity:1; 
stroke-linecap:round; stroke-linejoin:round;">
</g>
<g style="fill:#840000; fill-opacity:0.0; 
stroke:#840000; stroke-width:60; stroke-opacity:1; 
stroke-linecap:round; stroke-linejoin:round;">
<path d="M4190 73060
L4190 72550
L4310 72550
L4390 72570
L4430 72620
L4460 72670
L4480 72760
L4480 72840
L4460 72930
L4430 72980
L4390 73030
L4310 73060
L4190 73060
" />
</g>
<g style="fill:#840000; fill-opacity:0.0; 
stroke:#840000; stroke-width:100; stroke-opacity:1; 
stroke-linecap:round; stroke-linejoin:round;">
</g>
<g style="fill:#840000; fill-opacity:0.0; 
stroke:#840000; stroke-width:60; stroke-opacity:1; 
stroke-linecap:round; stroke-linejoin:round;">
<path d="M112990 23620
L112210 23620
" />
</g>
<g style="fill:#840000; fill-opacity:0.0; 
stroke:#840000; stroke-width:100; stroke-opacity:1; 
stroke-linecap:round; stroke-linejoin:round;">
</g>
<g style="fill:#840000; fill-opacity:0.0; 
stroke:#840000; stroke-width:60; stroke-opacity:1; 
stroke-linecap:round; stroke-linejoin:round;">
<path d="M112990 43310
L112210 43310
" />
</g>
<g style="fill:#840000; fill-opacity:0.0; 
stroke:#840000; stroke-width:100; stroke-opacity:1; 
stroke-linecap:round; stroke-linejoin:round;">
</g>
<g style="fill:#840000; fill-opacity:0.0; 
stroke:#840000; stroke-width:60; stroke-opacity:1; 
stroke-linecap:round; stroke-linejoin:round;">
<path d="M112990 62990
L112210 62990
" />
</g>
<g style="fill:#840000; fill-opacity:0.0; 
stroke:#840000; stroke-width:100; stroke-opacity:1; 
stroke-linecap:round; stroke-linejoin:round;">
</g>
<g style="fill:#840000; fill-opacity:0.0; 
stroke:#840000; stroke-width:60; stroke-opacity:1; 
stroke-linecap:round; stroke-linejoin:round;">
<path d="M112470 13860
L112720 13860
" />
<path d="M112430 14010
L112600 13500
L112770 14010
" />
</g>
<g style="fill:#840000; fill-opacity:0.0; 
stroke:#840000; stroke-width:100; stroke-opacity:1; 
stroke-linecap:round; stroke-linejoin:round;">
</g>
<g style="fill:#840000; fill-opacity:0.0; 
stroke:#840000; stroke-width:60; stroke-opacity:1; 
stroke-linecap:round; stroke-linejoin:round;">
<path d="M112630 33420
L112700 33440
L112730 33470
L112750 33520
L112750 33590
L112730 33640
L112700 33660
L112660 33690
L112460 33690
L112460 33180
L112630 33180
L112680 33200
L112700 33220
L112730 33270
L112730 33320
L112700 33370
L112680 33390
L112630 33420
L112460 33420
" />
</g>
<g style="fill:#840000; fill-opacity:0.0; 
stroke:#840000; stroke-width:100; stroke-opacity:1; 
stroke-linecap:round; stroke-linejoin:round;">
</g>
<g style="fill:#840000; fill-opacity:0.0; 
stroke:#840000; stroke-width:60; stroke-opacity:1; 
stroke-linecap:round; stroke-linejoin:round;">
<path d="M112750 53330
L112730 53350
L112660 53380
L112610 53380
L112530 53350
L112490 53300
L112460 53250
L112440 53160
L112440 53080
L112460 52990
L112490 52940
L112530 52890
L112610 52870
L112660 52870
L112730 52890
L112750 52910
" />
</g>
<g style="fill:#840000; fill-opacity:0.0; 
stroke:#840000; stroke-width:100; stroke-opacity:1; 
stroke-linecap:round; stroke-linejoin:round;">
</g>
<g style="fill:#840000; fill-opacity:0.0; 
stroke:#840000; stroke-width:60; stroke-opacity:1; 
stroke-linecap:round; stroke-linejoin:round;">
<path d="M112460 73060
L112460 72550
L112580 72550
L112660 72570
L112700 72620
L112730 72670
L112750 72760
L112750 72840
L112730 72930
L112700 72980
L112660 73030
L112580 73060
L112460 73060
" />
</g>
<g style="fill:#840000; fill-opacity:0.0; 
stroke:#840000; stroke-width:100; stroke-opacity:1; 
stroke-linecap:round; stroke-linejoin:round;">
</g>
<g style="fill:#840000; fill-opacity:0.0; 
stroke:#840000; stroke-width:60; stroke-opacity:1; 
stroke-linecap:round; stroke-linejoin:round;">
<path d="M78910 76290
L78910 75700
L79050 75700
L79130 75730
L79190 75790
L79210 75840
L79240 75950
L79240 76040
L79210 76150
L79190 76210
L79130 76260
L79050 76290
L78910 76290
" />
<path d="M79750 76290
L79750 75980
L79720 75930
L79660 75900
L79550 75900
L79500 75930
" />
<path d="M79750 76260
L79690 76290
L79550 76290
L79500 76260
L79470 76210
L79470 76150
L79500 76100
L79550 76070
L79690 76070
L79750 76040
" />
<path d="M79950 75900
L80170 75900
" />
<path d="M80030 75700
L80030 76210
L80060 76260
L80110 76290
L80170 76290
" />
<path d="M80590 76260
L80540 76290
L80420 76290
L80370 76260
L80340 76210
L80340 75980
L80370 75930
L80420 75900
L80540 75900
L80590 75930
L80620 75980
L80620 76040
L80340 76100
" />
<path d="M80870 76240
L80900 76260
L80870 76290
L80840 76260
L80870 76240
L80870 76290
" />
<path d="M80870 75930
L80900 75950
L80870 75980
L80840 75950
L80870 75930
L80870 75980
" />
<path d="M81570 75760
L81600 75730
L81660 75700
L81800 75700
L81860 75730
L81880 75760
L81910 75810
L81910 75870
L81880 75950
L81550 76290
L81910 76290
" />
<path d="M82280 75700
L82330 75700
L82390 75730
L82420 75760
L82450 75810
L82470 75930
L82470 76070
L82450 76180
L82420 76240
L82390 76260
L82330 76290
L82280 76290
L82220 76260
L82190 76240
L82160 76180
L82140 76070
L82140 75930
L82160 75810
L82190 75760
L82220 75730
L82280 75700
" />
<path d="M83040 76290
L82700 76290
" />
<path d="M82870 76290
L82870 75700
L82810 75790
L82750 75840
L82700 75870
" />
<path d="M83320 76290
L83430 76290
L83490 76260
L83510 76240
L83570 76150
L83600 76040
L83600 75810
L83570 75760
L83540 75730
L83490 75700
L83370 75700
L83320 75730
L83290 75760
L83260 75810
L83260 75950
L83290 76010
L83320 76040
L83370 76070
L83490 76070
L83540 76040
L83570 76010
L83600 75950
" />
<path d="M83850 76070
L84300 76070
" />
<path d="M84690 75700
L84750 75700
L84810 75730
L84830 75760
L84860 75810
L84890 75930
L84890 76070
L84860 76180
L84830 76240
L84810 76260
L84750 76290
L84690 76290
L84640 76260
L84610 76240
L84580 76180
L84550 76070
L84550 75930
L84580 75810
L84610 75760
L84640 75730
L84690 75700
" />
<path d="M85230 75950
L85170 75930
L85140 75900
L85110 75840
L85110 75810
L85140 75760
L85170 75730
L85230 75700
L85340 75700
L85400 75730
L85420 75760
L85450 75810
L85450 75840
L85420 75900
L85400 75930
L85340 75950
L85230 75950
L85170 75980
L85140 76010
L85110 76070
L85110 76180
L85140 76240
L85170 76260
L85230 76290
L85340 76290
L85400 76260
L85420 76240
L85450 76180
L85450 76070
L85420 76010
L85400 75980
L85340 75950
" />
<path d="M85700 76070
L86150 76070
" />
<path d="M86550 75700
L86600 75700
L86660 75730
L86690 75760
L86720 75810
L86740 75930
L86740 76070
L86720 76180
L86690 76240
L86660 76260
L86600 76290
L86550 76290
L86490 76260
L86460 76240
L86440 76180
L86410 76070
L86410 75930
L86440 75810
L86460 75760
L86490 75730
L86550 75700
" />
<path d="M87030 76290
L87140 76290
L87190 76260
L87220 76240
L87280 76150
L87310 76040
L87310 75810
L87280 75760
L87250 75730
L87190 75700
L87080 75700
L87030 75730
L87000 75760
L86970 75810
L86970 75950
L87000 76010
L87030 76040
L87080 76070
L87190 76070
L87250 76040
L87280 76010
L87310 75950
" />
</g>
<g style="fill:#840000; fill-opacity:0.0; 
stroke:#840000; stroke-width:100; stroke-opacity:1; 
stroke-linecap:round; stroke-linejoin:round;">
</g>
<g style="fill:#840000; fill-opacity:0.0; 
stroke:#840000; stroke-width:60; stroke-opacity:1; 
stroke-linecap:round; stroke-linejoin:round;">
<path d="M69690 76580
L112210 76580
" />
</g>
<g style="fill:#840000; fill-opacity:0.0; 
stroke:#840000; stroke-width:100; stroke-opacity:1; 
stroke-linecap:round; stroke-linejoin:round;">
</g>
<g style="fill:#840000; fill-opacity:0.0; 
stroke:#840000; stroke-width:60; stroke-opacity:1; 
stroke-linecap:round; stroke-linejoin:round;">
<path d="M70250 77390
L70250 76800
" />
<path d="M70580 77390
L70330 77050
" />
<path d="M70580 76800
L70250 77140
" />
<path d="M70840 77390
L70840 77000
" />
<path d="M70840 76800
L70810 76830
L70840 76860
L70860 76830
L70840 76800
L70840 76860
" />
<path d="M71450 77340
L71430 77360
L71340 77390
L71290 77390
L71200 77360
L71140 77310
L71120 77250
L71090 77140
L71090 77050
L71120 76940
L71140 76890
L71200 76830
L71290 76800
L71340 76800
L71430 76830
L71450 76860
" />
<path d="M71960 77390
L71960 77080
L71930 77030
L71880 77000
L71760 77000
L71710 77030
" />
<path d="M71960 77360
L71900 77390
L71760 77390
L71710 77360
L71680 77310
L71680 77250
L71710 77200
L71760 77170
L71900 77170
L71960 77140
" />
<path d="M72490 77390
L72490 76800
" />
<path d="M72490 77360
L72440 77390
L72320 77390
L72270 77360
L72240 77340
L72210 77280
L72210 77110
L72240 77050
L72270 77030
L72320 77000
L72440 77000
L72490 77030
" />
<path d="M73220 77080
L73420 77080
" />
<path d="M73500 77390
L73220 77390
L73220 76800
L73500 76800
" />
<path d="M73760 77340
L73790 77360
L73760 77390
L73730 77360
L73760 77340
L73760 77390
" />
<path d="M74040 77390
L74040 76800
L74180 76800
L74260 76830
L74320 76890
L74350 76940
L74380 77050
L74380 77140
L74350 77250
L74320 77310
L74260 77360
L74180 77390
L74040 77390
" />
<path d="M74630 77340
L74660 77360
L74630 77390
L74600 77360
L74630 77340
L74630 77390
" />
<path d="M74880 77220
L75160 77220
" />
<path d="M74830 77390
L75020 76800
L75220 77390
" />
<path d="M75420 77340
L75440 77360
L75420 77390
L75390 77360
L75420 77340
L75420 77390
" />
<path d="M76600 77390
L76600 76800
" />
<path d="M76650 77170
L76820 77390
" />
<path d="M76820 77000
L76600 77220
" />
<path d="M77070 77390
L77070 77000
" />
<path d="M77070 76800
L77040 76830
L77070 76860
L77100 76830
L77070 76800
L77070 76860
" />
<path d="M77610 77360
L77550 77390
L77440 77390
L77380 77360
L77350 77340
L77330 77280
L77330 77110
L77350 77050
L77380 77030
L77440 77000
L77550 77000
L77610 77030
" />
<path d="M78110 77390
L78110 77080
L78080 77030
L78030 77000
L77920 77000
L77860 77030
" />
<path d="M78110 77360
L78060 77390
L77920 77390
L77860 77360
L77830 77310
L77830 77250
L77860 77200
L77920 77170
L78060 77170
L78110 77140
" />
<path d="M78650 77390
L78650 76800
" />
<path d="M78650 77360
L78590 77390
L78480 77390
L78420 77360
L78390 77340
L78370 77280
L78370 77110
L78390 77050
L78420 77030
L78480 77000
L78590 77000
L78650 77030
" />
<path d="M79550 77620
L79520 77590
L79460 77500
L79430 77450
L79400 77360
L79380 77220
L79380 77110
L79400 76970
L79430 76890
L79460 76830
L79520 76750
L79550 76720
" />
<path d="M80050 76800
L79770 76800
L79740 77080
L79770 77050
L79830 77030
L79970 77030
L80020 77050
L80050 77080
L80080 77140
L80080 77280
L80050 77340
L80020 77360
L79970 77390
L79830 77390
L79770 77360
L79740 77340
" />
<path d="M80330 77340
L80360 77360
L80330 77390
L80300 77360
L80330 77340
L80330 77390
" />
<path d="M80730 76800
L80780 76800
L80840 76830
L80870 76860
L80890 76910
L80920 77030
L80920 77170
L80890 77280
L80870 77340
L80840 77360
L80780 77390
L80730 77390
L80670 77360
L80640 77340
L80610 77280
L80580 77170
L80580 77030
L80610 76910
L80640 76860
L80670 76830
L80730 76800
" />
<path d="M81170 77340
L81200 77360
L81170 77390
L81150 77360
L81170 77340
L81170 77390
" />
<path d="M81570 76800
L81620 76800
L81680 76830
L81710 76860
L81740 76910
L81760 77030
L81760 77170
L81740 77280
L81710 77340
L81680 77360
L81620 77390
L81570 77390
L81510 77360
L81480 77340
L81460 77280
L81430 77170
L81430 77030
L81460 76910
L81480 76860
L81510 76830
L81570 76800
" />
<path d="M81960 77620
L81990 77590
L82050 77500
L82070 77450
L82100 77360
L82130 77220
L82130 77110
L82100 76970
L82070 76890
L82050 76830
L81990 76750
L81960 76720
" />
</g>
<g style="fill:#840000; fill-opacity:0.0; 
stroke:#840000; stroke-width:100; stroke-opacity:1; 
stroke-linecap:round; stroke-linejoin:round;">
</g>
<g style="fill:#840000; fill-opacity:0.0; 
stroke:#840000; stroke-width:60; stroke-opacity:1; 
stroke-linecap:round; stroke-linejoin:round;">
<path d="M69690 75400
L112210 75400
" />
</g>
<g style="fill:#840000; fill-opacity:0.0; 
stroke:#840000; stroke-width:100; stroke-opacity:1; 
stroke-linecap:round; stroke-linejoin:round;">
</g>
<g style="fill:#840000; fill-opacity:0.0; 
stroke:#840000; stroke-width:120; stroke-opacity:1; 
stroke-linecap:round; stroke-linejoin:round;">
<path d="M104090 76290
L103890 76010
" />
<path d="M103750 76290
L103750 75700
L103980 75700
L104030 75730
L104060 75760
L104090 75810
L104090 75900
L104060 75950
L104030 75980
L103980 76010
L103750 76010
" />
<path d="M104570 76260
L104510 76290
L104400 76290
L104340 76260
L104320 76210
L104320 75980
L104340 75930
L104400 75900
L104510 75900
L104570 75930
L104600 75980
L104600 76040
L104320 76100
" />
<path d="M104790 75900
L104930 76290
L105070 75900
" />
<path d="M105300 76240
L105330 76260
L105300 76290
L105270 76260
L105300 76240
L105300 76290
" />
<path d="M105300 75930
L105330 75950
L105300 75980
L105270 75950
L105300 75930
L105300 75980
" />
<path d="M106140 75700
L106200 75700
L106250 75730
L106280 75760
L106310 75810
L106340 75930
L106340 76070
L106310 76180
L106280 76240
L106250 76260
L106200 76290
L106140 76290
L106090 76260
L106060 76240
L106030 76180
L106000 76070
L106000 75930
L106030 75810
L106060 75760
L106090 75730
L106140 75700
" />
<path d="M106590 76240
L106620 76260
L106590 76290
L106560 76260
L106590 76240
L106590 76290
" />
<path d="M107180 76290
L106840 76290
" />
<path d="M107010 76290
L107010 75700
L106960 75790
L106900 75840
L106840 75870
" />
<path d="M107430 76240
L107460 76260
L107430 76290
L107410 76260
L107430 76240
L107430 76290
" />
<path d="M107830 75700
L107880 75700
L107940 75730
L107970 75760
L108000 75810
L108020 75930
L108020 76070
L108000 76180
L107970 76240
L107940 76260
L107880 76290
L107830 76290
L107770 76260
L107740 76240
L107710 76180
L107690 76070
L107690 75930
L107710 75810
L107740 75760
L107770 75730
L107830 75700
" />
</g>
<g style="fill:#840000; fill-opacity:0.0; 
stroke:#840000; stroke-width:100; stroke-opacity:1; 
stroke-linecap:round; stroke-linejoin:round;">
</g>
<g style="fill:#840000; fill-opacity:0.0; 
stroke:#840000; stroke-width:60; stroke-opacity:1; 
stroke-linecap:round; stroke-linejoin:round;">
<path d="M70220 76260
L70300 76290
L70440 76290
L70500 76260
L70530 76240
L70550 76180
L70550 76120
L70530 76070
L70500 76040
L70440 76010
L70330 75980
L70270 75950
L70250 75930
L70220 75870
L70220 75810
L70250 75760
L70270 75730
L70330 75700
L70470 75700
L70550 75730
" />
<path d="M70810 76290
L70810 75900
" />
<path d="M70810 75700
L70780 75730
L70810 75760
L70840 75730
L70810 75700
L70810 75760
" />
<path d="M71030 75900
L71340 75900
L71030 76290
L71340 76290
" />
<path d="M71790 76260
L71730 76290
L71620 76290
L71570 76260
L71540 76210
L71540 75980
L71570 75930
L71620 75900
L71730 75900
L71790 75930
L71820 75980
L71820 76040
L71540 76100
" />
<path d="M72070 76240
L72100 76260
L72070 76290
L72040 76260
L72070 76240
L72070 76290
" />
<path d="M72070 75930
L72100 75950
L72070 75980
L72040 75950
L72070 75930
L72070 75980
" />
<path d="M72770 76120
L73060 76120
" />
<path d="M72720 76290
L72910 75700
L73110 76290
" />
<path d="M73560 75900
L73560 76290
" />
<path d="M73420 75670
L73280 76100
L73650 76100
" />
</g>
<g style="fill:#840000; fill-opacity:0.0; 
stroke:#840000; stroke-width:100; stroke-opacity:1; 
stroke-linecap:round; stroke-linejoin:round;">
</g>
<g style="fill:#840000; fill-opacity:0.0; 
stroke:#840000; stroke-width:60; stroke-opacity:1; 
stroke-linecap:round; stroke-linejoin:round;">
<path d="M103710 77390
L103710 76800
" />
<path d="M104240 77390
L104240 76800
" />
<path d="M104240 77360
L104180 77390
L104070 77390
L104010 77360
L103990 77340
L103960 77280
L103960 77110
L103990 77050
L104010 77030
L104070 77000
L104180 77000
L104240 77030
" />
<path d="M104520 77340
L104550 77360
L104520 77390
L104490 77360
L104520 77340
L104520 77390
" />
<path d="M104520 77030
L104550 77050
L104520 77080
L104490 77050
L104520 77030
L104520 77080
" />
<path d="M105560 77390
L105220 77390
" />
<path d="M105390 77390
L105390 76800
L105340 76890
L105280 76940
L105220 76970
" />
<path d="M106230 76770
L105730 77530
" />
<path d="M106370 76800
L106740 76800
L106540 77030
L106630 77030
L106680 77050
L106710 77080
L106740 77140
L106740 77280
L106710 77340
L106680 77360
L106630 77390
L106460 77390
L106400 77360
L106370 77340
" />
</g>
<g style="fill:#840000; fill-opacity:0.0; 
stroke:#840000; stroke-width:100; stroke-opacity:1; 
stroke-linecap:round; stroke-linejoin:round;">
</g>
<g style="fill:#840000; fill-opacity:0.0; 
stroke:#840000; stroke-width:60; stroke-opacity:1; 
stroke-linecap:round; stroke-linejoin:round;">
<path d="M69690 73820
L112210 73820
" />
</g>
<g style="fill:#840000; fill-opacity:0.0; 
stroke:#840000; stroke-width:100; stroke-opacity:1; 
stroke-linecap:round; stroke-linejoin:round;">
</g>
<g style="fill:#840000; fill-opacity:0.0; 
stroke:#840000; stroke-width:160; stroke-opacity:1; 
stroke-linecap:round; stroke-linejoin:round;">
<path d="M70360 74090
L70810 74090
" />
<path d="M70480 74880
L70580 74090
" />
<path d="M70970 74880
L71040 74360
" />
<path d="M71070 74090
L71030 74130
L71060 74170
L71110 74130
L71070 74090
L71060 74170
" />
<path d="M71300 74360
L71600 74360
" />
<path d="M71450 74090
L71360 74770
L71390 74840
L71460 74880
L71540 74880
" />
<path d="M71910 74880
L71840 74840
L71820 74770
L71900 74090
" />
<path d="M72520 74840
L72440 74880
L72290 74880
L72220 74840
L72190 74770
L72230 74470
L72280 74390
L72360 74360
L72510 74360
L72580 74390
L72610 74470
L72600 74540
L72210 74620
" />
<path d="M72900 74810
L72930 74840
L72890 74880
L72860 74840
L72900 74810
L72890 74880
" />
<path d="M72950 74390
L72990 74430
L72940 74470
L72910 74430
L72950 74390
L72940 74470
" />
<path d="M74210 74880
L74260 74470
L74230 74390
L74160 74360
L74010 74360
L73930 74390
" />
<path d="M74210 74840
L74130 74880
L73950 74880
L73880 74840
L73850 74770
L73860 74690
L73900 74620
L73980 74580
L74170 74580
L74250 74540
" />
<path d="M74590 74880
L74650 74360
" />
<path d="M74640 74430
L74680 74390
L74760 74360
L74880 74360
L74950 74390
L74980 74470
L74920 74880
" />
<path d="M74980 74470
L75020 74390
L75100 74360
L75220 74360
L75290 74390
L75310 74470
L75260 74880
" />
<path d="M75700 74360
L75610 75150
" />
<path d="M75700 74390
L75780 74360
L75930 74360
L76000 74390
L76030 74430
L76060 74510
L76030 74730
L75990 74810
L75940 74840
L75860 74880
L75710 74880
L75640 74840
" />
<path d="M76470 74880
L76400 74840
L76370 74770
L76450 74090
" />
<path d="M76770 74880
L76830 74360
" />
<path d="M76870 74090
L76820 74130
L76860 74170
L76900 74130
L76870 74090
L76860 74170
" />
<path d="M77100 74360
L77400 74360
" />
<path d="M77140 74880
L77230 74210
L77270 74130
L77350 74090
L77430 74090
" />
<path d="M77900 74840
L77820 74880
L77670 74880
L77600 74840
L77570 74770
L77610 74470
L77660 74390
L77740 74360
L77890 74360
L77960 74390
L77980 74470
L77980 74540
L77590 74620
" />
<path d="M78680 74360
L78610 74880
" />
<path d="M78340 74360
L78290 74770
L78310 74840
L78380 74880
L78500 74880
L78580 74840
L78620 74810
" />
<path d="M79290 74840
L79210 74880
L79060 74880
L78990 74840
L78960 74770
L79000 74470
L79050 74390
L79130 74360
L79280 74360
L79350 74390
L79380 74470
L79370 74540
L78980 74620
" />
<path d="M79660 74880
L79730 74360
" />
<path d="M79710 74510
L79760 74430
L79800 74390
L79880 74360
L79960 74360
" />
</g>
<g style="fill:#840000; fill-opacity:0.0; 
stroke:#840000; stroke-width:100; stroke-opacity:1; 
stroke-linecap:round; stroke-linejoin:round;">
</g>
<g style="fill:#840000; fill-opacity:0.0; 
stroke:#840000; stroke-width:60; stroke-opacity:1; 
stroke-linecap:round; stroke-linejoin:round;">
<path d="M70440 73060
L70250 73060
" />
<path d="M70250 73370
L70250 72780
L70530 72780
" />
<path d="M70750 73370
L70750 72980
" />
<path d="M70750 72780
L70720 72810
L70750 72840
L70780 72810
L70750 72780
L70750 72840
" />
<path d="M71120 73370
L71060 73340
L71030 73290
L71030 72780
" />
<path d="M71570 73340
L71510 73370
L71400 73370
L71340 73340
L71310 73290
L71310 73060
L71340 73010
L71400 72980
L71510 72980
L71570 73010
L71590 73060
L71590 73120
L71310 73180
" />
<path d="M71850 73320
L71880 73340
L71850 73370
L71820 73340
L71850 73320
L71850 73370
" />
<path d="M71850 73010
L71880 73030
L71850 73060
L71820 73030
L71850 73010
L71850 73060
" />
<path d="M72830 73370
L72830 73060
L72800 73010
L72750 72980
L72630 72980
L72580 73010
" />
<path d="M72830 73340
L72770 73370
L72630 73370
L72580 73340
L72550 73290
L72550 73230
L72580 73180
L72630 73150
L72770 73150
L72830 73120
" />
<path d="M73110 73370
L73110 72980
" />
<path d="M73110 73030
L73140 73010
L73200 72980
L73280 72980
L73340 73010
L73360 73060
L73360 73370
" />
<path d="M73360 73060
L73390 73010
L73450 72980
L73530 72980
L73590 73010
L73620 73060
L73620 73370
" />
<path d="M73900 72980
L73900 73570
" />
<path d="M73900 73010
L73950 72980
L74070 72980
L74120 73010
L74150 73030
L74180 73090
L74180 73260
L74150 73320
L74120 73340
L74070 73370
L73950 73370
L73900 73340
" />
<path d="M74520 73370
L74460 73340
L74430 73290
L74430 72780
" />
<path d="M74740 73370
L74740 72980
" />
<path d="M74740 72780
L74710 72810
L74740 72840
L74770 72810
L74740 72780
L74740 72840
" />
<path d="M74940 72980
L75160 72980
" />
<path d="M75020 73370
L75020 72870
L75050 72810
L75110 72780
L75160 72780
" />
<path d="M75580 73340
L75530 73370
L75420 73370
L75360 73340
L75330 73290
L75330 73060
L75360 73010
L75420 72980
L75530 72980
L75580 73010
L75610 73060
L75610 73120
L75330 73180
" />
<path d="M76120 72980
L76120 73370
" />
<path d="M75860 72980
L75860 73290
L75890 73340
L75950 73370
L76030 73370
L76090 73340
L76120 73320
" />
<path d="M76620 73340
L76570 73370
L76450 73370
L76400 73340
L76370 73290
L76370 73060
L76400 73010
L76450 72980
L76570 72980
L76620 73010
L76650 73060
L76650 73120
L76370 73180
" />
<path d="M76900 73370
L76900 72980
" />
<path d="M76900 73090
L76930 73030
L76960 73010
L77020 72980
L77070 72980
" />
<path d="M77270 73150
L77720 73150
" />
<path d="M77970 73340
L78030 73370
L78140 73370
L78200 73340
L78220 73290
L78220 73260
L78200 73200
L78140 73180
L78060 73180
L78000 73150
L77970 73090
L77970 73060
L78000 73010
L78060 72980
L78140 72980
L78200 73010
" />
<path d="M78730 73340
L78670 73370
L78560 73370
L78510 73340
L78480 73320
L78450 73260
L78450 73090
L78480 73030
L78510 73010
L78560 72980
L78670 72980
L78730 73010
" />
<path d="M78980 73370
L78980 72780
" />
<path d="M79240 73370
L79240 73060
L79210 73010
L79150 72980
L79070 72980
L79010 73010
L78980 73030
" />
<path d="M79740 73340
L79690 73370
L79570 73370
L79520 73340
L79490 73290
L79490 73060
L79520 73010
L79570 72980
L79690 72980
L79740 73010
L79770 73060
L79770 73120
L79490 73180
" />
<path d="M80020 73370
L80020 72980
" />
<path d="M80020 73030
L80050 73010
L80110 72980
L80190 72980
L80250 73010
L80280 73060
L80280 73370
" />
<path d="M80280 73060
L80300 73010
L80360 72980
L80440 72980
L80500 73010
L80530 73060
L80530 73370
" />
<path d="M81060 73370
L81060 73060
L81030 73010
L80980 72980
L80870 72980
L80810 73010
" />
<path d="M81060 73340
L81010 73370
L80870 73370
L80810 73340
L80780 73290
L80780 73230
L80810 73180
L80870 73150
L81010 73150
L81060 73120
" />
<path d="M81260 72980
L81480 72980
" />
<path d="M81340 72780
L81340 73290
L81370 73340
L81430 73370
L81480 73370
" />
<path d="M81680 73370
L81680 72980
" />
<path d="M81680 72780
L81650 72810
L81680 72840
L81710 72810
L81680 72780
L81680 72840
" />
<path d="M82210 73340
L82160 73370
L82050 73370
L81990 73340
L81960 73320
L81930 73260
L81930 73090
L81960 73030
L81990 73010
L82050 72980
L82160 72980
L82210 73010
" />
<path d="M82470 73320
L82500 73340
L82470 73370
L82440 73340
L82470 73320
L82470 73370
" />
<path d="M82720 73340
L82780 73370
L82890 73370
L82940 73340
L82970 73290
L82970 73260
L82940 73200
L82890 73180
L82800 73180
L82750 73150
L82720 73090
L82720 73060
L82750 73010
L82800 72980
L82890 72980
L82940 73010
" />
<path d="M83480 73340
L83420 73370
L83310 73370
L83250 73340
L83230 73320
L83200 73260
L83200 73090
L83230 73030
L83250 73010
L83310 72980
L83420 72980
L83480 73010
" />
<path d="M83730 73370
L83730 72780
" />
<path d="M83980 73370
L83980 73060
L83960 73010
L83900 72980
L83820 72980
L83760 73010
L83730 73030
" />
</g>
<g style="fill:#840000; fill-opacity:0.0; 
stroke:#840000; stroke-width:100; stroke-opacity:1; 
stroke-linecap:round; stroke-linejoin:round;">
</g>
<g style="fill:#840000; fill-opacity:0.0; 
stroke:#840000; stroke-width:60; stroke-opacity:1; 
stroke-linecap:round; stroke-linejoin:round;">
<path d="M69690 71460
L112210 71460
" />
</g>
<g style="fill:#840000; fill-opacity:0.0; 
stroke:#840000; stroke-width:100; stroke-opacity:1; 
stroke-linecap:round; stroke-linejoin:round;">
</g>
<g style="fill:#840000; fill-opacity:0.0; 
stroke:#840000; stroke-width:60; stroke-opacity:1; 
stroke-linecap:round; stroke-linejoin:round;">
<path d="M70220 72280
L70300 72310
L70440 72310
L70500 72280
L70530 72260
L70550 72200
L70550 72140
L70530 72090
L70500 72060
L70440 72030
L70330 72000
L70270 71970
L70250 71950
L70220 71890
L70220 71830
L70250 71780
L70270 71750
L70330 71720
L70470 71720
L70550 71750
" />
<path d="M70810 72310
L70810 71720
" />
<path d="M71060 72310
L71060 72000
L71030 71950
L70980 71920
L70890 71920
L70840 71950
L70810 71970
" />
<path d="M71570 72280
L71510 72310
L71400 72310
L71340 72280
L71310 72230
L71310 72000
L71340 71950
L71400 71920
L71510 71920
L71570 71950
L71590 72000
L71590 72060
L71310 72120
" />
<path d="M72070 72280
L72020 72310
L71900 72310
L71850 72280
L71820 72230
L71820 72000
L71850 71950
L71900 71920
L72020 71920
L72070 71950
L72100 72000
L72100 72060
L71820 72120
" />
<path d="M72270 71920
L72490 71920
" />
<path d="M72350 71720
L72350 72230
L72380 72280
L72440 72310
L72490 72310
" />
<path d="M72690 72260
L72720 72280
L72690 72310
L72660 72280
L72690 72260
L72690 72310
" />
<path d="M72690 71950
L72720 71970
L72690 72000
L72660 71970
L72690 71950
L72690 72000
" />
<path d="M73840 71690
L73340 72450
" />
</g>
<g style="fill:#840000; fill-opacity:0.0; 
stroke:#840000; stroke-width:100; stroke-opacity:1; 
stroke-linecap:round; stroke-linejoin:round;">
</g>
<g style="fill:#840000; fill-opacity:0.0; 
stroke:#840000; stroke-width:120; stroke-opacity:1; 
stroke-linecap:round; stroke-linejoin:round;">
<path d="M70290 70740
L70290 71130
" />
<path d="M70290 70790
L70320 70770
L70380 70740
L70460 70740
L70520 70770
L70550 70820
L70550 71130
" />
<path d="M71080 71130
L71080 70820
L71050 70770
L71000 70740
L70880 70740
L70830 70770
" />
<path d="M71080 71100
L71020 71130
L70880 71130
L70830 71100
L70800 71050
L70800 70990
L70830 70940
L70880 70910
L71020 70910
L71080 70880
" />
<path d="M71360 71130
L71360 70540
" />
<path d="M71360 70770
L71420 70740
L71530 70740
L71590 70770
L71610 70790
L71640 70850
L71640 71020
L71610 71080
L71590 71100
L71530 71130
L71420 71130
L71360 71100
" />
<path d="M71890 71130
L71890 70740
" />
<path d="M71890 70540
L71870 70570
L71890 70600
L71920 70570
L71890 70540
L71890 70600
" />
<path d="M72180 70740
L72180 71240
L72150 71300
L72090 71330
L72060 71330
" />
<path d="M72180 70540
L72150 70570
L72180 70600
L72200 70570
L72180 70540
L72180 70600
" />
<path d="M72710 71130
L72710 70820
L72680 70770
L72630 70740
L72510 70740
L72460 70770
" />
<path d="M72710 71100
L72650 71130
L72510 71130
L72460 71100
L72430 71050
L72430 70990
L72460 70940
L72510 70910
L72650 70910
L72710 70880
" />
<path d="M73240 71100
L73190 71130
L73070 71130
L73020 71100
L72990 71080
L72960 71020
L72960 70850
L72990 70790
L73020 70770
L73070 70740
L73190 70740
L73240 70770
" />
<path d="M73440 70740
L73750 70740
L73440 71130
L73750 71130
" />
<path d="M74060 71130
L74000 71100
L73970 71050
L73970 70540
" />
<path d="M74510 71100
L74450 71130
L74340 71130
L74280 71100
L74250 71050
L74250 70820
L74280 70770
L74340 70740
L74450 70740
L74510 70770
L74540 70820
L74540 70880
L74250 70940
" />
<path d="M74730 70740
L74840 71130
L74960 70850
L75070 71130
L75180 70740
" />
<path d="M75630 71100
L75580 71130
L75460 71130
L75410 71100
L75380 71050
L75380 70820
L75410 70770
L75460 70740
L75580 70740
L75630 70770
L75660 70820
L75660 70880
L75380 70940
" />
<path d="M76000 71130
L75940 71100
L75910 71050
L75910 70540
" />
<path d="M76220 71130
L76220 70740
" />
<path d="M76220 70540
L76190 70570
L76220 70600
L76250 70570
L76220 70540
L76220 70600
" />
</g>
<g style="fill:#840000; fill-opacity:0.0; 
stroke:#840000; stroke-width:100; stroke-opacity:1; 
stroke-linecap:round; stroke-linejoin:round;">
</g>
<g style="fill:#840000; fill-opacity:0.0; 
stroke:#840000; stroke-width:60; stroke-opacity:1; 
stroke-linecap:round; stroke-linejoin:round;">
<path d="M77560 75400
L77560 76580
" />
</g>
<g style="fill:#840000; fill-opacity:0.0; 
stroke:#840000; stroke-width:100; stroke-opacity:1; 
stroke-linecap:round; stroke-linejoin:round;">
</g>
<g style="fill:#840000; fill-opacity:0.0; 
stroke:#840000; stroke-width:60; stroke-opacity:1; 
stroke-linecap:round; stroke-linejoin:round;">
<path d="M102760 75400
L102760 77960
" />
</g>
<g style="fill:#840084; fill-opacity:0.0; 
stroke:#840084; stroke-width:60; stroke-opacity:1; 
stroke-linecap:round; stroke-linejoin:round;">
<path d="M84000 29000
L101000 29000
L101000 42500
L84000 42500
L84000 29000
" />
</g>
<g style="fill:#008484; fill-opacity:0.0; 
stroke:#008484; stroke-width:60; stroke-opacity:1; 
stroke-linecap:round; stroke-linejoin:round;">
</g>
<g style="fill:#000000; fill-opacity:0.0; 
stroke:#000000; stroke-width:60; stroke-opacity:1; 
stroke-linecap:round; stroke-linejoin:round;">
<path d="M84360 28930
L84360 28670
L84330 28620
L84290 28600
L84190 28600
L84140 28620
" />
<path d="M84360 28910
L84310 28930
L84190 28930
L84140 28910
L84120 28860
L84120 28810
L84140 28760
L84190 28740
L84310 28740
L84360 28720
" />
<path d="M84600 28930
L84600 28600
" />
<path d="M84600 28650
L84620 28620
L84670 28600
L84740 28600
L84790 28620
L84810 28670
L84810 28930
" />
<path d="M84810 28670
L84830 28620
L84880 28600
L84950 28600
L85000 28620
L85030 28670
L85030 28930
" />
<path d="M85260 28600
L85260 29100
" />
<path d="M85260 28620
L85310 28600
L85410 28600
L85450 28620
L85480 28650
L85500 28690
L85500 28840
L85480 28880
L85450 28910
L85410 28930
L85310 28930
L85260 28910
" />
<path d="M85790 28930
L85740 28910
L85720 28860
L85720 28430
" />
<path d="M85980 28930
L85980 28600
" />
<path d="M85980 28430
L85950 28460
L85980 28480
L86000 28460
L85980 28430
L85980 28480
" />
<path d="M86140 28600
L86330 28600
" />
<path d="M86220 28930
L86220 28500
L86240 28460
L86290 28430
L86330 28430
" />
<path d="M86500 28930
L86500 28600
" />
<path d="M86500 28430
L86480 28460
L86500 28480
L86530 28460
L86500 28430
L86500 28480
" />
<path d="M86930 28910
L86880 28930
L86790 28930
L86740 28910
L86720 28860
L86720 28670
L86740 28620
L86790 28600
L86880 28600
L86930 28620
L86950 28670
L86950 28720
L86720 28760
" />
<path d="M87170 28930
L87170 28600
" />
<path d="M87170 28690
L87190 28650
L87220 28620
L87260 28600
L87310 28600
" />
</g>
<g style="fill:#848400; fill-opacity:0.0; 
stroke:#848400; stroke-width:60; stroke-opacity:1; 
stroke-linecap:round; stroke-linejoin:round;">
</g>
<g style="fill:#000000; fill-opacity:0.0; 
stroke:#000000; stroke-width:60; stroke-opacity:1; 
stroke-linecap:round; stroke-linejoin:round;">
<path d="M84360 43010
L84360 42750
L84330 42700
L84290 42680
L84190 42680
L84140 42700
" />
<path d="M84360 42990
L84310 43010
L84190 43010
L84140 42990
L84120 42940
L84120 42890
L84140 42840
L84190 42820
L84310 42820
L84360 42800
" />
<path d="M84600 43010
L84600 42680
" />
<path d="M84600 42730
L84620 42700
L84670 42680
L84740 42680
L84790 42700
L84810 42750
L84810 43010
" />
<path d="M84810 42750
L84830 42700
L84880 42680
L84950 42680
L85000 42700
L85030 42750
L85030 43010
" />
<path d="M85260 42680
L85260 43180
" />
<path d="M85260 42700
L85310 42680
L85410 42680
L85450 42700
L85480 42730
L85500 42770
L85500 42920
L85480 42960
L85450 42990
L85410 43010
L85310 43010
L85260 42990
" />
<path d="M85790 43010
L85740 42990
L85720 42940
L85720 42510
" />
<path d="M85980 43010
L85980 42680
" />
<path d="M85980 42510
L85950 42540
L85980 42560
L86000 42540
L85980 42510
L85980 42560
" />
<path d="M86140 42680
L86330 42680
" />
<path d="M86220 43010
L86220 42580
L86240 42540
L86290 42510
L86330 42510
" />
<path d="M86690 42990
L86640 43010
L86550 43010
L86500 42990
L86480 42940
L86480 42750
L86500 42700
L86550 42680
L86640 42680
L86690 42700
L86720 42750
L86720 42800
L86480 42840
" />
<path d="M87140 42680
L87140 43010
" />
<path d="M86930 42680
L86930 42940
L86950 42990
L87000 43010
L87070 43010
L87120 42990
L87140 42960
" />
<path d="M87570 42990
L87530 43010
L87430 43010
L87380 42990
L87360 42940
L87360 42750
L87380 42700
L87430 42680
L87530 42680
L87570 42700
L87600 42750
L87600 42800
L87360 42840
" />
<path d="M87810 43010
L87810 42680
" />
<path d="M87810 42770
L87830 42730
L87860 42700
L87910 42680
L87950 42680
" />
<path d="M88120 42820
L88500 42820
" />
<path d="M88720 42990
L88760 43010
L88860 43010
L88910 42990
L88930 42940
L88930 42920
L88910 42870
L88860 42840
L88790 42840
L88740 42820
L88720 42770
L88720 42750
L88740 42700
L88790 42680
L88860 42680
L88910 42700
" />
<path d="M89360 42990
L89310 43010
L89220 43010
L89170 42990
L89140 42960
L89120 42920
L89120 42770
L89140 42730
L89170 42700
L89220 42680
L89310 42680
L89360 42700
" />
<path d="M89570 43010
L89570 42510
" />
<path d="M89790 43010
L89790 42750
L89760 42700
L89720 42680
L89640 42680
L89600 42700
L89570 42730
" />
<path d="M90220 42990
L90170 43010
L90070 43010
L90030 42990
L90000 42940
L90000 42750
L90030 42700
L90070 42680
L90170 42680
L90220 42700
L90240 42750
L90240 42800
L90000 42840
" />
<path d="M90450 43010
L90450 42680
" />
<path d="M90450 42730
L90480 42700
L90530 42680
L90600 42680
L90640 42700
L90670 42750
L90670 43010
" />
<path d="M90670 42750
L90690 42700
L90740 42680
L90810 42680
L90860 42700
L90880 42750
L90880 43010
" />
<path d="M91330 43010
L91330 42750
L91310 42700
L91260 42680
L91170 42680
L91120 42700
" />
<path d="M91330 42990
L91290 43010
L91170 43010
L91120 42990
L91100 42940
L91100 42890
L91120 42840
L91170 42820
L91290 42820
L91330 42800
" />
<path d="M91500 42680
L91690 42680
" />
<path d="M91570 42510
L91570 42940
L91600 42990
L91640 43010
L91690 43010
" />
<path d="M91860 43010
L91860 42680
" />
<path d="M91860 42510
L91830 42540
L91860 42560
L91880 42540
L91860 42510
L91860 42560
" />
<path d="M92310 42990
L92260 43010
L92170 43010
L92120 42990
L92100 42960
L92070 42920
L92070 42770
L92100 42730
L92120 42700
L92170 42680
L92260 42680
L92310 42700
" />
<path d="M92530 42820
L92910 42820
" />
<path d="M93360 43010
L93360 42750
L93330 42700
L93290 42680
L93190 42680
L93140 42700
" />
<path d="M93360 42990
L93310 43010
L93190 43010
L93140 42990
L93120 42940
L93120 42890
L93140 42840
L93190 42820
L93310 42820
L93360 42800
" />
<path d="M93600 43010
L93600 42680
" />
<path d="M93600 42730
L93620 42700
L93670 42680
L93740 42680
L93790 42700
L93810 42750
L93810 43010
" />
<path d="M93810 42750
L93830 42700
L93880 42680
L93950 42680
L94000 42700
L94030 42750
L94030 43010
" />
<path d="M94260 42680
L94260 43180
" />
<path d="M94260 42700
L94310 42680
L94410 42680
L94450 42700
L94480 42730
L94500 42770
L94500 42920
L94480 42960
L94450 42990
L94410 43010
L94310 43010
L94260 42990
" />
<path d="M94790 43010
L94740 42990
L94720 42940
L94720 42510
" />
<path d="M94980 43010
L94980 42680
" />
<path d="M94980 42510
L94950 42540
L94980 42560
L95000 42540
L94980 42510
L94980 42560
" />
<path d="M95140 42680
L95330 42680
" />
<path d="M95220 43010
L95220 42580
L95240 42540
L95290 42510
L95330 42510
" />
<path d="M95500 43010
L95500 42680
" />
<path d="M95500 42510
L95480 42540
L95500 42560
L95530 42540
L95500 42510
L95500 42560
" />
<path d="M95930 42990
L95880 43010
L95790 43010
L95740 42990
L95720 42940
L95720 42750
L95740 42700
L95790 42680
L95880 42680
L95930 42700
L95950 42750
L95950 42800
L95720 42840
" />
<path d="M96170 43010
L96170 42680
" />
<path d="M96170 42770
L96190 42730
L96220 42700
L96260 42680
L96310 42680
" />
<path d="M96480 42960
L96500 42990
L96480 43010
L96450 42990
L96480 42960
L96480 43010
" />
<path d="M96690 42990
L96740 43010
L96830 43010
L96880 42990
L96910 42940
L96910 42920
L96880 42870
L96830 42840
L96760 42840
L96720 42820
L96690 42770
L96690 42750
L96720 42700
L96760 42680
L96830 42680
L96880 42700
" />
<path d="M97330 42990
L97290 43010
L97190 43010
L97140 42990
L97120 42960
L97100 42920
L97100 42770
L97120 42730
L97140 42700
L97190 42680
L97290 42680
L97330 42700
" />
<path d="M97550 43010
L97550 42510
" />
<path d="M97760 43010
L97760 42750
L97740 42700
L97690 42680
L97620 42680
L97570 42700
L97550 42730
" />
</g>
<g style="fill:#840084; fill-opacity:0.0; 
stroke:#840084; stroke-width:60; stroke-opacity:1; 
stroke-linecap:round; stroke-linejoin:round;">
</g>
<g style="fill:#848400; fill-opacity:0.0; 
stroke:#848400; stroke-width:60; stroke-opacity:1; 
stroke-linecap:round; stroke-linejoin:round;">
<path d="M85360 35570
L86130 35570
" />
<path d="M85740 35950
L85740 35190
" />
<path d="M86460 34950
L86790 35950
L87130 34950
" />
<path d="M87460 35280
L87460 36280
" />
<path d="M87460 35330
L87550 35280
L87740 35280
L87840 35330
L87890 35380
L87930 35470
L87930 35760
L87890 35850
L87840 35900
L87740 35950
L87550 35950
L87460 35900
" />
</g>
<g style="fill:#848400; fill-opacity:0.0; 
stroke:#848400; stroke-width:100; stroke-opacity:1; 
stroke-linecap:round; stroke-linejoin:round;">
<polyline fill="none;"
points="85000,35500
84500,35000
84000,35000
84000,36000
84500,36000
85000,35500
" /> 
</g>
<g style="fill:#848400; fill-opacity:0.0; 
stroke:#848400; stroke-width:60; stroke-opacity:1; 
stroke-linecap:round; stroke-linejoin:round;">
</g>
<g style="fill:#840084; fill-opacity:0.0; 
stroke:#840084; stroke-width:60; stroke-opacity:1; 
stroke-linecap:round; stroke-linejoin:round;">
<path d="M61000 29000
L78000 29000
L78000 42500
L61000 42500
L61000 29000
" />
</g>
<g style="fill:#008484; fill-opacity:0.0; 
stroke:#008484; stroke-width:60; stroke-opacity:1; 
stroke-linecap:round; stroke-linejoin:round;">
</g>
<g style="fill:#000000; fill-opacity:0.0; 
stroke:#000000; stroke-width:60; stroke-opacity:1; 
stroke-linecap:round; stroke-linejoin:round;">
<path d="M61140 28930
L61140 28430
L61330 28430
L61380 28460
L61410 28480
L61430 28530
L61430 28600
L61410 28650
L61380 28670
L61330 28690
L61140 28690
" />
<path d="M61620 28910
L61690 28930
L61810 28930
L61860 28910
L61880 28880
L61910 28840
L61910 28790
L61880 28740
L61860 28720
L61810 28690
L61720 28670
L61670 28650
L61640 28620
L61620 28570
L61620 28530
L61640 28480
L61670 28460
L61720 28430
L61830 28430
L61910 28460
" />
<path d="M62120 28430
L62120 28840
L62140 28880
L62170 28910
L62220 28930
L62310 28930
L62360 28910
L62380 28880
L62410 28840
L62410 28430
" />
</g>
<g style="fill:#848400; fill-opacity:0.0; 
stroke:#848400; stroke-width:60; stroke-opacity:1; 
stroke-linecap:round; stroke-linejoin:round;">
</g>
<g style="fill:#000000; fill-opacity:0.0; 
stroke:#000000; stroke-width:60; stroke-opacity:1; 
stroke-linecap:round; stroke-linejoin:round;">
<path d="M61360 43010
L61360 42750
L61330 42700
L61290 42680
L61190 42680
L61140 42700
" />
<path d="M61360 42990
L61310 43010
L61190 43010
L61140 42990
L61120 42940
L61120 42890
L61140 42840
L61190 42820
L61310 42820
L61360 42800
" />
<path d="M61600 43010
L61600 42680
" />
<path d="M61600 42730
L61620 42700
L61670 42680
L61740 42680
L61790 42700
L61810 42750
L61810 43010
" />
<path d="M61810 42750
L61830 42700
L61880 42680
L61950 42680
L62000 42700
L62030 42750
L62030 43010
" />
<path d="M62260 42680
L62260 43180
" />
<path d="M62260 42700
L62310 42680
L62410 42680
L62450 42700
L62480 42730
L62500 42770
L62500 42920
L62480 42960
L62450 42990
L62410 43010
L62310 43010
L62260 42990
" />
<path d="M62790 43010
L62740 42990
L62720 42940
L62720 42510
" />
<path d="M62980 43010
L62980 42680
" />
<path d="M62980 42510
L62950 42540
L62980 42560
L63000 42540
L62980 42510
L62980 42560
" />
<path d="M63140 42680
L63330 42680
" />
<path d="M63220 43010
L63220 42580
L63240 42540
L63290 42510
L63330 42510
" />
<path d="M63690 42990
L63640 43010
L63550 43010
L63500 42990
L63480 42940
L63480 42750
L63500 42700
L63550 42680
L63640 42680
L63690 42700
L63720 42750
L63720 42800
L63480 42840
" />
<path d="M64140 42680
L64140 43010
" />
<path d="M63930 42680
L63930 42940
L63950 42990
L64000 43010
L64070 43010
L64120 42990
L64140 42960
" />
<path d="M64570 42990
L64530 43010
L64430 43010
L64380 42990
L64360 42940
L64360 42750
L64380 42700
L64430 42680
L64530 42680
L64570 42700
L64600 42750
L64600 42800
L64360 42840
" />
<path d="M64810 43010
L64810 42680
" />
<path d="M64810 42770
L64830 42730
L64860 42700
L64910 42680
L64950 42680
" />
<path d="M65120 42820
L65500 42820
" />
<path d="M65720 42990
L65760 43010
L65860 43010
L65910 42990
L65930 42940
L65930 42920
L65910 42870
L65860 42840
L65790 42840
L65740 42820
L65720 42770
L65720 42750
L65740 42700
L65790 42680
L65860 42680
L65910 42700
" />
<path d="M66360 42990
L66310 43010
L66220 43010
L66170 42990
L66140 42960
L66120 42920
L66120 42770
L66140 42730
L66170 42700
L66220 42680
L66310 42680
L66360 42700
" />
<path d="M66570 43010
L66570 42510
" />
<path d="M66790 43010
L66790 42750
L66760 42700
L66720 42680
L66640 42680
L66600 42700
L66570 42730
" />
<path d="M67220 42990
L67170 43010
L67070 43010
L67030 42990
L67000 42940
L67000 42750
L67030 42700
L67070 42680
L67170 42680
L67220 42700
L67240 42750
L67240 42800
L67000 42840
" />
<path d="M67450 43010
L67450 42680
" />
<path d="M67450 42730
L67480 42700
L67530 42680
L67600 42680
L67640 42700
L67670 42750
L67670 43010
" />
<path d="M67670 42750
L67690 42700
L67740 42680
L67810 42680
L67860 42700
L67880 42750
L67880 43010
" />
<path d="M68330 43010
L68330 42750
L68310 42700
L68260 42680
L68170 42680
L68120 42700
" />
<path d="M68330 42990
L68290 43010
L68170 43010
L68120 42990
L68100 42940
L68100 42890
L68120 42840
L68170 42820
L68290 42820
L68330 42800
" />
<path d="M68500 42680
L68690 42680
" />
<path d="M68570 42510
L68570 42940
L68600 42990
L68640 43010
L68690 43010
" />
<path d="M68860 43010
L68860 42680
" />
<path d="M68860 42510
L68830 42540
L68860 42560
L68880 42540
L68860 42510
L68860 42560
" />
<path d="M69310 42990
L69260 43010
L69170 43010
L69120 42990
L69100 42960
L69070 42920
L69070 42770
L69100 42730
L69120 42700
L69170 42680
L69260 42680
L69310 42700
" />
<path d="M69530 42820
L69910 42820
" />
<path d="M70140 42680
L70140 43180
" />
<path d="M70140 42700
L70190 42680
L70290 42680
L70330 42700
L70360 42730
L70380 42770
L70380 42920
L70360 42960
L70330 42990
L70290 43010
L70190 43010
L70140 42990
" />
<path d="M70570 42990
L70620 43010
L70720 43010
L70760 42990
L70790 42940
L70790 42920
L70760 42870
L70720 42840
L70640 42840
L70600 42820
L70570 42770
L70570 42750
L70600 42700
L70640 42680
L70720 42680
L70760 42700
" />
<path d="M71220 42680
L71220 43010
" />
<path d="M71000 42680
L71000 42940
L71030 42990
L71070 43010
L71140 43010
L71190 42990
L71220 42960
" />
<path d="M71450 42960
L71480 42990
L71450 43010
L71430 42990
L71450 42960
L71450 43010
" />
<path d="M71670 42990
L71720 43010
L71810 43010
L71860 42990
L71880 42940
L71880 42920
L71860 42870
L71810 42840
L71740 42840
L71690 42820
L71670 42770
L71670 42750
L71690 42700
L71740 42680
L71810 42680
L71860 42700
" />
<path d="M72310 42990
L72260 43010
L72170 43010
L72120 42990
L72100 42960
L72070 42920
L72070 42770
L72100 42730
L72120 42700
L72170 42680
L72260 42680
L72310 42700
" />
<path d="M72530 43010
L72530 42510
" />
<path d="M72740 43010
L72740 42750
L72720 42700
L72670 42680
L72600 42680
L72550 42700
L72530 42730
" />
</g>
<g style="fill:#840084; fill-opacity:0.0; 
stroke:#840084; stroke-width:60; stroke-opacity:1; 
stroke-linecap:round; stroke-linejoin:round;">
</g>
<g style="fill:#848400; fill-opacity:0.0; 
stroke:#848400; stroke-width:60; stroke-opacity:1; 
stroke-linecap:round; stroke-linejoin:round;">
<path d="M74250 34950
L74580 35950
L74910 34950
" />
<path d="M75200 35900
L75290 35950
L75480 35950
L75580 35900
L75630 35800
L75630 35760
L75580 35660
L75480 35610
L75340 35610
L75250 35570
L75200 35470
L75200 35420
L75250 35330
L75340 35280
L75480 35280
L75580 35330
" />
<path d="M75960 35280
L76150 35950
L76340 35470
L76530 35950
L76720 35280
" />
</g>
<g style="fill:#848400; fill-opacity:0.0; 
stroke:#848400; stroke-width:100; stroke-opacity:1; 
stroke-linecap:round; stroke-linejoin:round;">
<polyline fill="none;"
points="78000,35500
77500,35000
77000,35000
77000,36000
77500,36000
78000,35500
" /> 
</g>
<g style="fill:#848400; fill-opacity:0.0; 
stroke:#848400; stroke-width:60; stroke-opacity:1; 
stroke-linecap:round; stroke-linejoin:round;">
</g>
<g style="fill:#008400; fill-opacity:0.0; 
stroke:#008400; stroke-width:60; stroke-opacity:1; 
stroke-linecap:round; stroke-linejoin:round;">
<path d="M84000 35500
L78000 35500
" />
</g> 
</svg>
